<svg width="33" height="37" xmlns="http://www.w3.org/2000/svg" xmlns:xlink="http://www.w3.org/1999/xlink" overflow="hidden"><defs><clipPath id="clip0"><rect x="860" y="230" width="33" height="37"/></clipPath></defs><g clip-path="url(#clip0)" transform="translate(-860 -230)"><path d="M2.3125 33.5312C2.3125 35.447 3.86551 37 5.78125 37L26.5938 37C28.5095 37 30.0625 35.447 30.0625 33.5312L30.0625 9.25 2.3125 9.25ZM21.9688 15.0312C21.9688 14.3926 22.4864 13.875 23.125 13.875 23.7636 13.875 24.2812 14.3926 24.2812 15.0312L24.2812 31.2188C24.2812 31.8574 23.7636 32.375 23.125 32.375 22.4864 32.375 21.9688 31.8574 21.9688 31.2188ZM15.0312 15.0312C15.0312 14.3926 15.5489 13.875 16.1875 13.875 16.8261 13.875 17.3438 14.3926 17.3438 15.0312L17.3438 31.2188C17.3438 31.8574 16.8261 32.375 16.1875 32.375 15.5489 32.375 15.0312 31.8574 15.0312 31.2188ZM8.09375 15.0312C8.09375 14.3926 8.61139 13.875 9.25 13.875 9.88861 13.875 10.4062 14.3926 10.4062 15.0312L10.4062 31.2188C10.4062 31.8574 9.88861 32.375 9.25 32.375 8.61139 32.375 8.09375 31.8574 8.09375 31.2188ZM31.2188 2.3125 22.5469 2.3125 21.8676 0.961133C21.574 0.371838 20.9722-0.00047216 20.3139 1.37836e-08L12.0539 0C11.3968-0.00252604 10.7961 0.370818 10.5074 0.961133L9.82812 2.3125 1.15625 2.3125C0.517671 2.3125 -2.56739e-16 2.83017 0 3.46875L0 5.78125C0 6.41983 0.517671 6.9375 1.15625 6.9375L31.2188 6.9375C31.8574 6.9375 32.375 6.41983 32.375 5.78125L32.375 3.46875C32.375 2.83017 31.8574 2.3125 31.2188 2.3125Z" fill="#E64E0A" transform="matrix(1.01931 0 0 1 860 230)"/></g></svg>